<svg width="447" height="84" viewBox="0 0 447 84" fill="none" xmlns="http://www.w3.org/2000/svg">
<path d="M49.7974 60.56C48.9654 59.472 48.2614 58.288 47.6854 57.008C47.1094 55.664 46.5014 54.064 45.8614 52.208C45.7334 51.888 45.3494 50.928 44.7094 49.328C44.1334 47.728 43.4614 46.352 42.6934 45.2C38.6614 45.776 35.3654 46.064 32.8054 46.064C31.3974 46.064 29.8294 46.032 28.1014 45.968C26.4374 45.84 25.1894 45.776 24.3574 45.776C21.1574 45.52 18.5974 45.392 16.6774 45.392C15.9094 46.416 15.2374 47.504 14.6614 48.656C14.1494 49.808 13.4774 51.536 12.6454 53.84C11.4934 57.168 10.5014 59.536 9.66938 60.944C9.09338 61.904 7.97338 62.384 6.30938 62.384C4.90138 62.384 3.58938 62.096 2.37338 61.52C1.22138 60.88 0.645375 60.016 0.645375 58.928C1.15738 56.496 1.95738 53.936 3.04538 51.248C4.19738 48.496 5.82938 44.848 7.94138 40.304L11.7814 30.896C13.8934 25.52 15.8134 20.912 17.5414 17.072C19.3334 13.232 21.6694 8.688 24.5494 3.44C24.9334 2.672 25.5734 2.032 26.4694 1.51999C27.3654 0.943995 28.3574 0.655994 29.4454 0.655994C30.6614 0.655994 31.5254 0.751995 32.0374 0.943996C32.6134 1.072 33.0614 1.328 33.3814 1.712C33.7014 2.032 34.1814 2.736 34.8214 3.824C36.9974 7.216 38.8534 10.704 40.3894 14.288C41.9894 17.872 44.0054 22.832 46.4374 29.168L48.4534 34.256C50.2454 38.864 51.7814 42.736 53.0614 45.872C54.4054 48.944 55.8774 51.76 57.4774 54.32C58.5014 55.984 59.0134 57.136 59.0134 57.776C59.0134 59.312 58.5334 60.496 57.5734 61.328C56.6774 62.096 55.4934 62.48 54.0214 62.48C52.1654 62.48 50.7574 61.84 49.7974 60.56ZM39.9094 37.328C38.8854 35.152 37.4134 31.376 35.4934 26C33.5094 20.24 31.5254 15.664 29.5414 12.272C28.3254 15.344 26.5334 19.312 24.1654 24.176C22.5654 27.184 20.7414 31.536 18.6934 37.232C22.7894 37.744 27.2054 38 31.9414 38C35.3334 38 37.9894 37.776 39.9094 37.328ZM99.6836 29.936C99.6836 32.752 98.2436 34.16 95.3636 34.16C94.4036 34.16 93.6036 33.936 92.9636 33.488C92.3236 33.04 91.6196 32.368 90.8516 31.472C88.9316 29.36 87.2676 28.304 85.8596 28.304C84.0036 28.304 82.1796 28.848 80.3876 29.936C78.6596 31.024 77.2516 32.56 76.1636 34.544C75.0756 36.528 74.5316 38.736 74.5316 41.168C74.5316 43.856 75.0436 46.096 76.0676 47.888C77.1556 49.68 78.8196 51.216 81.0596 52.496C81.8916 52.944 82.8516 53.296 83.9396 53.552C85.0916 53.808 86.0836 53.936 86.9156 53.936C88.7716 53.936 91.1076 53.2 93.9236 51.728C94.9476 51.216 95.8116 50.832 96.5156 50.576C97.2196 50.32 97.9556 50.192 98.7236 50.192C99.4276 50.192 100.228 50.512 101.124 51.152C102.02 51.792 102.468 52.592 102.468 53.552C102.468 55.472 101.572 57.104 99.7796 58.448C97.9876 59.728 95.7796 60.72 93.1556 61.424C90.5956 62.064 88.1316 62.384 85.7636 62.384C81.9876 62.384 78.4676 61.52 75.2036 59.792C72.0036 58.064 69.4436 55.696 67.5236 52.688C65.6036 49.616 64.6436 46.16 64.6436 42.32C64.6436 38.224 65.5716 34.48 67.4276 31.088C69.2836 27.696 71.7796 25.04 74.9156 23.12C78.0516 21.2 81.4756 20.24 85.1876 20.24C87.2996 20.24 89.4756 20.624 91.7156 21.392C93.9556 22.16 95.8436 23.28 97.3796 24.752C98.9156 26.224 99.6836 27.952 99.6836 29.936ZM109.836 41.648C109.836 39.216 110.284 36.784 111.18 34.352C112.076 31.856 113.26 29.584 114.732 27.536C116.204 25.488 118.54 23.824 121.74 22.544C124.94 21.2 127.788 20.528 130.284 20.528C132.844 20.528 135.436 20.88 138.06 21.584C140.748 22.288 142.604 23.376 143.628 24.848C145.996 28.176 147.18 31.44 147.18 34.64C147.18 36.368 146.796 37.84 146.028 39.056C145.324 40.272 144.3 41.584 142.956 42.992C141.868 44.144 140.14 44.912 137.772 45.296C135.468 45.68 133.164 45.872 130.86 45.872C129.388 45.872 127.596 45.744 125.484 45.488C123.372 45.168 121.324 44.784 119.34 44.336C119.468 45.616 119.788 46.864 120.3 48.08C120.812 49.296 121.42 50.224 122.124 50.864C123.404 52.08 124.716 52.848 126.06 53.168C127.468 53.488 129.26 53.648 131.436 53.648C133.74 53.648 135.884 53.264 137.868 52.496C139.468 51.92 140.78 51.632 141.804 51.632C143.02 51.632 143.948 52.016 144.588 52.784C145.228 53.488 145.548 54.416 145.548 55.568C145.548 57.168 144.62 58.48 142.764 59.504C140.908 60.528 138.764 61.296 136.332 61.808C133.964 62.256 132.044 62.48 130.572 62.48C127.564 62.48 124.652 61.936 121.836 60.848C119.02 59.76 116.684 58.224 114.828 56.24C113.292 54.448 112.076 52.304 111.18 49.808C110.284 47.248 109.836 44.528 109.836 41.648ZM130.764 28.688C129.356 28.688 127.948 28.976 126.54 29.552C125.132 30.064 123.98 30.8 123.084 31.76C121.932 32.976 121.132 33.968 120.684 34.736C120.3 35.44 120.044 36.432 119.916 37.712C121.516 38.224 124.844 38.48 129.9 38.48C132.652 38.48 134.764 38.064 136.236 37.232C137.772 36.4 138.54 35.312 138.54 33.968C138.54 32.624 137.708 31.408 136.044 30.32C134.38 29.232 132.62 28.688 130.764 28.688ZM166.818 81.584C163.298 81.584 160.738 80.944 159.138 79.664C157.602 78.448 156.834 77.104 156.834 75.632C156.834 73.392 157.89 72.272 160.002 72.272C160.642 72.272 161.474 72.464 162.498 72.848C163.522 73.296 164.482 73.52 165.378 73.52C166.786 73.52 167.938 72.592 168.834 70.736C169.73 68.88 170.626 65.872 171.522 61.712C169.538 59.408 167.106 55.76 164.226 50.768C161.41 45.776 158.978 40.88 156.93 36.08C154.882 31.216 153.858 27.76 153.858 25.712C153.858 24.112 154.402 22.928 155.49 22.16C156.642 21.392 157.954 21.008 159.426 21.008C160.578 21.008 161.474 21.232 162.114 21.68C162.754 22.064 163.202 22.8 163.458 23.888C164.994 29.328 166.626 34.096 168.354 38.192C170.146 42.288 172.418 46.736 175.17 51.536C176.258 49.04 177.698 44.784 179.49 38.768C181.474 32.048 183.138 27.28 184.482 24.464C185.058 23.312 185.762 22.384 186.594 21.68C187.49 20.976 188.482 20.624 189.57 20.624C190.658 20.624 191.81 21.04 193.026 21.872C194.306 22.64 194.946 23.568 194.946 24.656C194.946 25.296 194.722 26.064 194.274 26.96C191.778 32.72 189.57 38.16 187.65 43.28C185.794 48.336 184.002 53.904 182.274 59.984C181.25 63.376 180.162 66.608 179.01 69.68C177.922 72.752 177.154 74.64 176.706 75.344C175.426 77.136 173.986 78.608 172.386 79.76C170.786 80.976 168.93 81.584 166.818 81.584ZM230.25 65.648C232.234 65.648 233.61 65.936 234.378 66.512C235.146 67.152 235.53 68.304 235.53 69.968C235.53 70.992 234.538 71.728 232.554 72.176C230.634 72.688 228.746 72.944 226.89 72.944C224.266 72.944 221.77 72.912 219.402 72.848L204.81 72.656C204.426 72.656 203.306 72.656 201.45 72.656C199.658 72.656 198.41 72.304 197.706 71.6C197.002 70.896 196.65 69.776 196.65 68.24C196.65 67.216 197.226 66.512 198.378 66.128C199.53 65.808 201.482 65.648 204.234 65.648H230.25ZM248.304 60.56C247.856 59.6 247.632 58.48 247.632 57.2C247.632 55.984 248.528 54.16 250.32 51.728C247.248 50.704 244.816 48.88 243.024 46.256C241.296 43.632 240.432 40.56 240.432 37.04C240.432 34.736 240.976 32.656 242.064 30.8C243.152 28.88 244.656 27.056 246.576 25.328C249.84 22.384 254.352 20.912 260.112 20.912C262.416 20.912 265.264 21.424 268.656 22.448C272.688 18.992 276.24 17.264 279.312 17.264C281.232 17.264 282.608 17.648 283.44 18.416C284.336 19.12 284.784 20.368 284.784 22.16C284.784 22.864 284.496 23.536 283.92 24.176C283.408 24.752 282.736 25.04 281.904 25.04L278.448 24.944C276.272 24.944 274.704 25.36 273.744 26.192C274.96 27.664 275.952 29.552 276.72 31.856C277.552 34.16 277.968 36.784 277.968 39.728C277.968 43.632 275.28 47.28 269.904 50.672C266.576 52.464 262.704 53.392 258.288 53.456C257.776 53.968 257.328 54.448 256.944 54.896C256.624 55.28 256.464 55.6 256.464 55.856C256.464 56.56 257.072 57.104 258.288 57.488C259.504 57.872 261.36 58.16 263.856 58.352C265.712 58.48 267.792 58.896 270.096 59.6C272.464 60.24 274.32 60.976 275.664 61.808C277.328 63.024 278.48 64.336 279.12 65.744C279.824 67.152 280.176 68.912 280.176 71.024C280.176 73.776 278.896 76.08 276.336 77.936C273.84 79.856 270.896 81.264 267.504 82.16C264.112 83.056 261.136 83.504 258.576 83.504C255.504 83.504 252.88 83.12 250.704 82.352C248.592 81.648 246.576 80.656 244.656 79.376C243.312 78.416 242.256 77.2 241.488 75.728C240.72 74.256 240.336 72.72 240.336 71.12C240.336 69.84 241.296 68.112 243.216 65.936C245.2 63.76 247.12 62.256 248.976 61.424C248.784 61.232 248.56 60.944 248.304 60.56ZM258 45.584C261.008 45.584 263.536 44.784 265.584 43.184C267.632 41.52 268.656 39.248 268.656 36.368C268.656 34.064 267.984 32.24 266.64 30.896C265.296 29.488 263.408 28.784 260.976 28.784C255.92 28.784 252.624 29.904 251.088 32.144C250.704 32.656 250.32 33.648 249.936 35.12C249.552 36.528 249.36 37.616 249.36 38.384C249.36 39.472 249.744 40.592 250.512 41.744C251.344 42.832 252.432 43.76 253.776 44.528C255.12 45.232 256.528 45.584 258 45.584ZM249.36 71.792C249.36 72.88 250.352 73.808 252.336 74.576C254.384 75.408 256.56 75.824 258.864 75.824C261.424 75.824 264.048 75.344 266.736 74.384C269.488 73.488 270.864 72.272 270.864 70.736C270.864 68.496 268.88 67.056 264.912 66.416C260.56 65.648 257.136 64.944 254.64 64.304C254.384 65.2 253.52 66.352 252.048 67.76C251.088 68.72 250.384 69.456 249.936 69.968C249.552 70.544 249.36 71.152 249.36 71.792ZM304.53 58.16C304.53 59.248 304.114 60.208 303.282 61.04C302.45 61.872 301.426 62.288 300.21 62.288C298.29 62.288 296.882 61.936 295.986 61.232C295.09 60.464 294.642 59.088 294.642 57.104C294.642 54.736 294.578 51.632 294.45 47.792C294.322 44.592 294.258 41.904 294.258 39.728C294.258 38.704 294.322 37.36 294.45 35.696C294.578 34.16 294.642 33.008 294.642 32.24C294.45 31.024 293.97 30.032 293.202 29.264C292.434 28.432 291.442 28.016 290.226 28.016C289.65 28.016 289.17 27.76 288.786 27.248C288.402 26.672 288.21 26.096 288.21 25.52C288.21 24.048 288.786 22.928 289.938 22.16C291.154 21.392 292.594 21.008 294.258 21.008C297.714 21.008 300.114 23.056 301.458 27.152C303.122 25.232 305.01 23.696 307.122 22.544C309.298 21.328 311.378 20.72 313.362 20.72C315.73 20.72 317.874 21.36 319.794 22.64C321.778 23.92 322.77 25.648 322.77 27.824C322.77 29.04 322.226 30.288 321.138 31.568C320.114 32.848 319.058 33.488 317.97 33.488C317.394 33.488 316.882 33.36 316.434 33.104C316.05 32.784 315.57 32.336 314.994 31.76C314.354 31.12 313.81 30.672 313.362 30.416C312.914 30.096 312.402 29.936 311.826 29.936C310.802 29.936 309.842 30.096 308.946 30.416C308.05 30.736 307.442 31.12 307.122 31.568C306.098 33.168 305.33 34.608 304.818 35.888C304.37 37.168 304.146 38.544 304.146 40.016C304.146 41.104 304.114 41.968 304.05 42.608L303.954 48.08C303.954 48.912 303.986 49.84 304.05 50.864C304.114 51.888 304.178 52.656 304.242 53.168C304.434 54.896 304.53 56.56 304.53 58.16ZM364.959 62.384C362.783 62.384 361.119 62.064 359.967 61.424C358.815 60.72 357.567 59.44 356.223 57.584C354.559 59.056 352.063 60.24 348.735 61.136C345.471 62.032 342.655 62.48 340.287 62.48C336.383 62.48 333.215 61.424 330.783 59.312C328.415 57.136 327.231 53.968 327.231 49.808C327.231 48.016 327.711 46.384 328.671 44.912C329.695 43.376 331.007 42.032 332.607 40.88C334.399 39.664 336.511 38.704 338.943 38C341.439 37.296 343.711 36.944 345.759 36.944C349.215 36.944 352.287 37.264 354.975 37.904V37.808C354.975 34.352 354.111 31.984 352.383 30.704C350.719 29.36 348.031 28.688 344.319 28.688C341.951 28.688 339.903 29.744 338.175 31.856C337.535 32.688 336.191 33.104 334.143 33.104C333.119 33.104 332.351 32.688 331.839 31.856C331.391 30.96 331.167 30.064 331.167 29.168C331.167 27.312 331.935 25.712 333.471 24.368C335.071 23.024 336.991 22.032 339.231 21.392C341.471 20.688 343.551 20.336 345.471 20.336C347.327 20.336 349.535 20.72 352.095 21.488C354.655 22.256 356.735 23.28 358.335 24.56C360.255 26.224 361.727 28.176 362.751 30.416C363.839 32.592 364.383 34.992 364.383 37.616C364.383 38.448 364.319 39.696 364.191 41.36C364.063 43.28 363.999 44.848 363.999 46.064C363.999 46.64 363.935 47.376 363.807 48.272C363.679 49.424 363.615 50.384 363.615 51.152C363.615 51.984 363.871 52.784 364.383 53.552C364.895 54.32 365.599 54.96 366.495 55.472C367.327 55.92 367.871 56.4 368.127 56.912C368.383 57.424 368.511 58 368.511 58.64C368.511 59.28 368.095 60.08 367.263 61.04C366.495 61.936 365.727 62.384 364.959 62.384ZM345.759 44.048C343.263 44.048 341.055 44.528 339.135 45.488C337.215 46.448 336.255 48.144 336.255 50.576C336.255 51.792 336.671 52.816 337.503 53.648C338.399 54.48 339.359 54.896 340.383 54.896C343.135 54.896 345.439 54.608 347.295 54.032C349.151 53.456 351.391 52.4 354.015 50.864C354.335 49.84 354.527 48.4 354.591 46.544C354.591 45.84 354.623 45.296 354.687 44.912C351.231 44.336 348.255 44.048 345.759 44.048ZM375.633 28.976C374.033 27.632 373.233 26.064 373.233 24.272C373.233 23.376 373.681 22.576 374.577 21.872C375.473 21.104 376.561 20.72 377.841 20.72C380.145 20.72 382.033 21.328 383.505 22.544C384.977 23.76 386.257 25.52 387.345 27.824C388.689 25.328 390.385 23.504 392.433 22.352C394.545 21.136 397.201 20.528 400.401 20.528C402.321 20.528 403.857 20.784 405.009 21.296C406.225 21.744 407.217 22.416 407.985 23.312C408.753 24.144 409.713 25.424 410.865 27.152C412.529 25.104 414.609 23.504 417.105 22.352C419.665 21.2 422.289 20.624 424.977 20.624C428.113 20.624 430.961 21.936 433.521 24.56C436.145 27.184 437.905 30.16 438.801 33.488C439.121 34.896 439.345 38.224 439.473 43.472L439.857 49.04C440.177 52.432 441.265 54.448 443.121 55.088C444.017 55.344 444.753 55.664 445.329 56.048C445.969 56.368 446.289 56.72 446.289 57.104C446.417 58.64 446.065 59.76 445.233 60.464C444.657 60.848 443.857 61.264 442.833 61.712C441.809 62.16 441.009 62.384 440.433 62.384C436.977 62.384 434.513 61.136 433.041 58.64C432.081 56.976 431.473 55.088 431.217 52.976C430.961 50.8 430.833 47.856 430.833 44.144C430.833 40.176 430.353 36.784 429.393 33.968C428.433 31.088 426.257 29.648 422.865 29.648C421.649 29.648 420.433 30.032 419.217 30.8C418.065 31.504 417.233 32.4 416.721 33.488C415.825 35.216 415.217 37.104 414.897 39.152C414.577 41.136 414.417 43.44 414.417 46.064C414.417 47.728 414.513 49.424 414.705 51.152C414.705 51.664 414.737 52.496 414.801 53.648C414.929 54.736 414.993 55.728 414.993 56.624C414.993 58.224 414.673 59.6 414.033 60.752C413.457 61.84 412.433 62.384 410.961 62.384C407.441 62.384 405.585 60.528 405.393 56.816C405.393 54.192 405.425 52.784 405.489 52.592V48.464C405.489 46.16 405.393 43.92 405.201 41.744C405.009 39.568 404.785 37.936 404.529 36.848C403.953 34.736 403.185 33.104 402.225 31.952C401.265 30.8 399.793 30.224 397.809 30.224C396.465 30.224 395.217 30.544 394.065 31.184C392.913 31.824 391.921 32.72 391.089 33.872C389.873 35.792 389.073 38.128 388.689 40.88C388.305 44.4 388.017 47.184 387.825 49.232C387.697 51.216 387.633 53.52 387.633 56.144C387.633 58 387.313 59.504 386.673 60.656C386.097 61.808 384.977 62.384 383.313 62.384C382.097 62.384 380.817 62.064 379.473 61.424C378.193 60.72 377.553 59.792 377.553 58.64C377.553 57.424 377.681 56.208 377.937 54.992C378.513 51.344 378.801 45.136 378.801 36.368C378.801 34.96 378.481 33.584 377.841 32.24C377.265 30.832 376.529 29.744 375.633 28.976Z" fill="#228B22"/>
</svg>
