<svg width="435" height="67" viewBox="0 0 435 67" fill="none" xmlns="http://www.w3.org/2000/svg">
<path d="M44.8774 40.392C44.8774 41.8 44.1094 42.984 42.5734 43.944C41.1014 44.904 39.7254 45.384 38.4454 45.384C36.0134 45.384 34.0614 45.096 32.5894 44.52C31.1814 43.88 29.8694 42.728 28.6534 41.064C26.9894 42.536 24.7174 43.656 21.8374 44.424C18.9574 45.128 16.3014 45.48 13.8694 45.48C9.90138 45.48 6.63738 44.424 4.07738 42.312C1.51738 40.136 0.237375 36.968 0.237375 32.808C0.237375 31.016 0.717375 29.384 1.67738 27.912C2.63738 26.376 3.94938 25.032 5.61338 23.88C7.46938 22.664 9.58138 21.736 11.9494 21.096C14.3174 20.392 16.7814 20.04 19.3414 20.04C20.6854 20.04 22.2854 20.296 24.1414 20.808C25.9974 21.32 27.4374 21.864 28.4614 22.44V20.904C28.4614 17.448 27.6294 15.08 25.9654 13.8C24.3014 12.456 21.6134 11.784 17.9014 11.784C16.8134 11.784 15.7254 12.008 14.6374 12.456C13.6134 12.904 12.4294 13.512 11.0854 14.28C9.29338 15.24 7.59738 15.72 5.99738 15.72C5.42138 15.72 4.87738 15.336 4.36538 14.568C3.85338 13.736 3.59738 13 3.59738 12.36C3.59738 10.504 4.46138 8.904 6.18938 7.56C7.98138 6.216 10.0934 5.224 12.5254 4.584C14.9574 3.88 17.1334 3.528 19.0534 3.528C20.9734 3.528 23.1814 3.912 25.6774 4.68C28.1734 5.384 30.2214 6.376 31.8214 7.656C33.7414 9.32 35.2134 11.272 36.2374 13.512C37.3254 15.688 37.8694 18.088 37.8694 20.712C37.8694 21.544 37.8054 22.792 37.6774 24.456C37.5494 26.248 37.4854 27.784 37.4854 29.064C37.4854 29.64 37.4214 30.504 37.2934 31.656C37.1654 33.064 37.1014 34.184 37.1014 35.016C37.1014 35.784 37.3894 36.456 37.9654 37.032C38.5414 37.544 39.2134 37.8 39.9814 37.8L42.6694 37.704C43.3734 37.704 43.9174 37.96 44.3014 38.472C44.6854 38.984 44.8774 39.624 44.8774 40.392ZM13.9654 37.896C16.7174 37.896 19.0214 37.608 20.8774 37.032C22.7334 36.456 24.9734 35.4 27.5974 33.864C27.8534 32.776 28.0134 31.336 28.0774 29.544C24.5574 27.88 21.6454 27.048 19.3414 27.048C16.7174 27.048 14.3814 27.528 12.3334 28.488C10.2854 29.448 9.26138 31.144 9.26138 33.576C9.26138 34.792 9.77338 35.816 10.7974 36.648C11.8214 37.48 12.8774 37.896 13.9654 37.896ZM85.3399 12.936C85.3399 15.752 83.8999 17.16 81.0199 17.16C80.0599 17.16 79.2599 16.936 78.6199 16.488C77.9799 16.04 77.2759 15.368 76.5079 14.472C74.5879 12.36 72.9239 11.304 71.5159 11.304C69.6599 11.304 67.8359 11.848 66.0439 12.936C64.3159 14.024 62.9079 15.56 61.8199 17.544C60.7319 19.528 60.1879 21.736 60.1879 24.168C60.1879 26.856 60.6999 29.096 61.7239 30.888C62.8119 32.68 64.4759 34.216 66.7159 35.496C67.5479 35.944 68.5079 36.296 69.5959 36.552C70.7479 36.808 71.7399 36.936 72.5719 36.936C74.4279 36.936 76.7639 36.2 79.5799 34.728C80.6039 34.216 81.4679 33.832 82.1719 33.576C82.8759 33.32 83.6119 33.192 84.3799 33.192C85.0839 33.192 85.8839 33.512 86.7799 34.152C87.6759 34.792 88.1239 35.592 88.1239 36.552C88.1239 38.472 87.2279 40.104 85.4359 41.448C83.6439 42.728 81.4359 43.72 78.8119 44.424C76.2519 45.064 73.7879 45.384 71.4199 45.384C67.6439 45.384 64.1239 44.52 60.8599 42.792C57.6599 41.064 55.0999 38.696 53.1799 35.688C51.2599 32.616 50.2999 29.16 50.2999 25.32C50.2999 21.224 51.2279 17.48 53.0839 14.088C54.9399 10.696 57.4359 8.04 60.5719 6.12C63.7079 4.2 67.1319 3.24 70.8439 3.24C72.9559 3.24 75.1319 3.624 77.3719 4.392C79.6119 5.16 81.4999 6.28 83.0359 7.752C84.5719 9.224 85.3399 10.952 85.3399 12.936ZM95.2999 23.016C95.2999 19.112 96.1639 15.88 97.8919 13.32C99.6199 10.696 102.02 8.232 105.092 5.928C105.988 5.288 107.492 4.744 109.604 4.296C111.716 3.784 113.572 3.528 115.172 3.528C117.092 3.528 119.108 3.944 121.22 4.776C123.396 5.544 125.156 6.44 126.5 7.464C128.868 9.192 130.5 11.208 131.396 13.512C132.292 15.752 132.74 18.44 132.74 21.576C132.74 22.92 131.972 24.232 130.436 25.512C128.964 26.728 127.364 27.336 125.636 27.336L121.988 27.24C120.132 27.24 117.476 27.304 114.02 27.432L112.004 27.528C110.596 27.656 109.54 27.72 108.836 27.72C107.812 27.72 106.404 27.592 104.612 27.336C104.868 30.344 105.988 32.712 107.972 34.44C109.956 36.104 112.1 36.936 114.404 36.936C118.436 36.936 121.252 36.136 122.852 34.536C124.196 33.576 125.092 32.968 125.54 32.712C125.988 32.456 126.692 32.328 127.652 32.328C128.676 32.328 129.572 32.808 130.34 33.768C131.108 34.728 131.492 35.688 131.492 36.648C131.492 37.736 130.82 38.856 129.476 40.008C128.196 41.096 126.436 42.248 124.196 43.464C122.98 43.976 121.316 44.424 119.204 44.808C117.092 45.192 115.332 45.384 113.924 45.384C111.684 45.384 109.188 44.744 106.436 43.464C103.684 42.12 101.636 40.648 100.292 39.048C98.9479 37.448 97.7639 35.176 96.7399 32.232C95.7799 29.288 95.2999 26.216 95.2999 23.016ZM114.404 20.424C118.948 20.424 122.276 20.264 124.388 19.944C124.26 18.088 123.684 16.584 122.66 15.432C121.636 14.216 120.228 13.192 118.436 12.36C117.86 12.104 117.348 11.912 116.9 11.784C116.452 11.656 115.94 11.592 115.364 11.592C112.42 11.592 109.924 12.392 107.876 13.992C105.892 15.592 104.708 17.64 104.324 20.136C107.524 20.328 110.884 20.424 114.404 20.424ZM152.286 64.584C148.766 64.584 146.206 63.944 144.606 62.664C143.07 61.448 142.302 60.104 142.302 58.632C142.302 56.392 143.358 55.272 145.47 55.272C146.11 55.272 146.942 55.464 147.966 55.848C148.99 56.296 149.95 56.52 150.846 56.52C152.254 56.52 153.406 55.592 154.302 53.736C155.198 51.88 156.094 48.872 156.99 44.712C155.006 42.408 152.574 38.76 149.694 33.768C146.878 28.776 144.446 23.88 142.398 19.08C140.35 14.216 139.326 10.76 139.326 8.712C139.326 7.112 139.87 5.928 140.958 5.16C142.11 4.392 143.422 4.008 144.894 4.008C146.046 4.008 146.942 4.232 147.582 4.68C148.222 5.064 148.67 5.8 148.926 6.888C150.462 12.328 152.094 17.096 153.822 21.192C155.614 25.288 157.886 29.736 160.638 34.536C161.726 32.04 163.166 27.784 164.958 21.768C166.942 15.048 168.606 10.28 169.95 7.464C170.526 6.312 171.23 5.384 172.062 4.68C172.958 3.976 173.95 3.624 175.038 3.624C176.126 3.624 177.278 4.04 178.494 4.872C179.774 5.64 180.414 6.568 180.414 7.656C180.414 8.296 180.19 9.064 179.742 9.96C177.246 15.72 175.038 21.16 173.118 26.28C171.262 31.336 169.47 36.904 167.742 42.984C166.718 46.376 165.63 49.608 164.478 52.68C163.39 55.752 162.622 57.64 162.174 58.344C160.894 60.136 159.454 61.608 157.854 62.76C156.254 63.976 154.398 64.584 152.286 64.584ZM215.718 48.648C217.702 48.648 219.078 48.936 219.846 49.512C220.614 50.152 220.998 51.304 220.998 52.968C220.998 53.992 220.006 54.728 218.022 55.176C216.102 55.688 214.214 55.944 212.358 55.944C209.734 55.944 207.238 55.912 204.87 55.848L190.278 55.656C189.894 55.656 188.774 55.656 186.918 55.656C185.126 55.656 183.878 55.304 183.174 54.6C182.47 53.896 182.118 52.776 182.118 51.24C182.118 50.216 182.694 49.512 183.846 49.128C184.998 48.808 186.95 48.648 189.702 48.648H215.718ZM233.772 43.56C233.324 42.6 233.1 41.48 233.1 40.2C233.1 38.984 233.996 37.16 235.788 34.728C232.716 33.704 230.284 31.88 228.492 29.256C226.764 26.632 225.9 23.56 225.9 20.04C225.9 17.736 226.444 15.656 227.532 13.8C228.62 11.88 230.124 10.056 232.044 8.328C235.308 5.384 239.82 3.912 245.58 3.912C247.884 3.912 250.732 4.424 254.124 5.448C258.156 1.992 261.708 0.263998 264.78 0.263998C266.7 0.263998 268.076 0.647998 268.908 1.416C269.804 2.12 270.252 3.368 270.252 5.16C270.252 5.864 269.964 6.536 269.388 7.176C268.876 7.752 268.204 8.04 267.372 8.04L263.916 7.944C261.74 7.944 260.172 8.36 259.212 9.192C260.428 10.664 261.42 12.552 262.188 14.856C263.02 17.16 263.436 19.784 263.436 22.728C263.436 26.632 260.748 30.28 255.372 33.672C252.044 35.464 248.172 36.392 243.756 36.456C243.244 36.968 242.796 37.448 242.412 37.896C242.092 38.28 241.932 38.6 241.932 38.856C241.932 39.56 242.54 40.104 243.756 40.488C244.972 40.872 246.828 41.16 249.324 41.352C251.18 41.48 253.26 41.896 255.564 42.6C257.932 43.24 259.788 43.976 261.132 44.808C262.796 46.024 263.948 47.336 264.588 48.744C265.292 50.152 265.644 51.912 265.644 54.024C265.644 56.776 264.364 59.08 261.804 60.936C259.308 62.856 256.364 64.264 252.972 65.16C249.58 66.056 246.604 66.504 244.044 66.504C240.972 66.504 238.348 66.12 236.172 65.352C234.06 64.648 232.044 63.656 230.124 62.376C228.78 61.416 227.724 60.2 226.956 58.728C226.188 57.256 225.804 55.72 225.804 54.12C225.804 52.84 226.764 51.112 228.684 48.936C230.668 46.76 232.588 45.256 234.444 44.424C234.252 44.232 234.028 43.944 233.772 43.56ZM243.468 28.584C246.476 28.584 249.004 27.784 251.052 26.184C253.1 24.52 254.124 22.248 254.124 19.368C254.124 17.064 253.452 15.24 252.108 13.896C250.764 12.488 248.876 11.784 246.444 11.784C241.388 11.784 238.092 12.904 236.556 15.144C236.172 15.656 235.788 16.648 235.404 18.12C235.02 19.528 234.828 20.616 234.828 21.384C234.828 22.472 235.212 23.592 235.98 24.744C236.812 25.832 237.9 26.76 239.244 27.528C240.588 28.232 241.996 28.584 243.468 28.584ZM234.828 54.792C234.828 55.88 235.82 56.808 237.804 57.576C239.852 58.408 242.028 58.824 244.332 58.824C246.892 58.824 249.516 58.344 252.204 57.384C254.956 56.488 256.332 55.272 256.332 53.736C256.332 51.496 254.348 50.056 250.38 49.416C246.028 48.648 242.604 47.944 240.108 47.304C239.852 48.2 238.988 49.352 237.516 50.76C236.556 51.72 235.852 52.456 235.404 52.968C235.02 53.544 234.828 54.152 234.828 54.792ZM289.999 41.16C289.999 42.248 289.583 43.208 288.751 44.04C287.919 44.872 286.895 45.288 285.679 45.288C283.759 45.288 282.351 44.936 281.455 44.232C280.559 43.464 280.111 42.088 280.111 40.104C280.111 37.736 280.047 34.632 279.919 30.792C279.791 27.592 279.727 24.904 279.727 22.728C279.727 21.704 279.791 20.36 279.919 18.696C280.047 17.16 280.111 16.008 280.111 15.24C279.919 14.024 279.439 13.032 278.671 12.264C277.903 11.432 276.911 11.016 275.695 11.016C275.119 11.016 274.639 10.76 274.255 10.248C273.871 9.672 273.679 9.096 273.679 8.52C273.679 7.048 274.255 5.928 275.407 5.16C276.623 4.392 278.063 4.008 279.727 4.008C283.183 4.008 285.583 6.056 286.927 10.152C288.591 8.232 290.479 6.696 292.591 5.544C294.767 4.328 296.847 3.72 298.831 3.72C301.199 3.72 303.343 4.36 305.263 5.64C307.247 6.92 308.239 8.648 308.239 10.824C308.239 12.04 307.695 13.288 306.607 14.568C305.583 15.848 304.527 16.488 303.439 16.488C302.863 16.488 302.351 16.36 301.903 16.104C301.519 15.784 301.039 15.336 300.463 14.76C299.823 14.12 299.279 13.672 298.831 13.416C298.383 13.096 297.871 12.936 297.295 12.936C296.271 12.936 295.311 13.096 294.415 13.416C293.519 13.736 292.911 14.12 292.591 14.568C291.567 16.168 290.799 17.608 290.287 18.888C289.839 20.168 289.615 21.544 289.615 23.016C289.615 24.104 289.583 24.968 289.519 25.608L289.423 31.08C289.423 31.912 289.455 32.84 289.519 33.864C289.583 34.888 289.647 35.656 289.711 36.168C289.903 37.896 289.999 39.56 289.999 41.16ZM357.531 40.392C357.531 41.8 356.763 42.984 355.227 43.944C353.691 44.904 352.283 45.384 351.003 45.384C348.635 45.384 346.715 45.096 345.243 44.52C343.835 43.88 342.491 42.728 341.211 41.064C339.611 42.536 337.371 43.656 334.491 44.424C331.611 45.128 328.955 45.48 326.523 45.48C322.555 45.48 319.259 44.424 316.635 42.312C314.075 40.136 312.795 36.968 312.795 32.808C312.795 31.016 313.339 29.224 314.427 27.432C315.515 25.576 316.859 24.104 318.459 23.016C320.187 21.864 322.139 21.096 324.315 20.712C326.491 20.264 329.019 20.04 331.899 20.04C333.243 20.04 334.843 20.296 336.699 20.808C338.555 21.32 340.027 21.864 341.115 22.44V20.904C341.115 17.448 340.251 15.08 338.523 13.8C336.859 12.456 334.171 11.784 330.459 11.784C329.307 11.784 328.251 11.976 327.291 12.36C326.395 12.68 325.339 13.16 324.123 13.8C322.971 14.44 321.883 14.76 320.859 14.76C319.963 14.76 319.099 14.408 318.267 13.704C317.435 12.936 317.019 12.136 317.019 11.304C317.019 8.616 318.683 6.664 322.011 5.448C325.403 4.168 328.859 3.528 332.379 3.528C334.171 3.528 336.219 3.912 338.523 4.68C340.827 5.384 342.779 6.376 344.379 7.656C346.299 9.256 347.771 11.176 348.795 13.416C349.883 15.656 350.427 18.088 350.427 20.712C350.427 21.544 350.363 22.792 350.235 24.456C350.107 26.248 350.043 27.784 350.043 29.064L349.947 31.656C349.819 33.064 349.755 34.184 349.755 35.016C349.755 35.784 350.011 36.456 350.523 37.032C351.099 37.544 351.771 37.8 352.539 37.8L355.227 37.704C355.931 37.704 356.475 37.992 356.859 38.568C357.307 39.08 357.531 39.688 357.531 40.392ZM326.523 37.896C329.275 37.896 331.579 37.608 333.435 37.032C335.291 36.456 337.531 35.4 340.155 33.864C340.411 32.776 340.571 31.336 340.635 29.544C337.115 27.88 334.203 27.048 331.899 27.048C329.723 27.048 327.963 27.144 326.619 27.336C325.275 27.464 324.059 28.008 322.971 28.968C321.883 29.928 321.339 31.464 321.339 33.576C321.339 34.792 321.915 35.816 323.067 36.648C324.283 37.48 325.435 37.896 326.523 37.896ZM363.633 11.976C362.033 10.632 361.233 9.064 361.233 7.272C361.233 6.376 361.681 5.576 362.577 4.872C363.473 4.104 364.561 3.72 365.841 3.72C368.145 3.72 370.033 4.328 371.505 5.544C372.977 6.76 374.257 8.52 375.345 10.824C376.689 8.328 378.385 6.504 380.433 5.352C382.545 4.136 385.201 3.528 388.401 3.528C390.321 3.528 391.857 3.784 393.009 4.296C394.225 4.744 395.217 5.416 395.985 6.312C396.753 7.144 397.713 8.424 398.865 10.152C400.529 8.104 402.609 6.504 405.105 5.352C407.665 4.2 410.289 3.624 412.977 3.624C416.113 3.624 418.961 4.936 421.521 7.56C424.145 10.184 425.905 13.16 426.801 16.488C427.121 17.896 427.345 21.224 427.473 26.472L427.857 32.04C428.177 35.432 429.265 37.448 431.121 38.088C432.017 38.344 432.753 38.664 433.329 39.048C433.969 39.368 434.289 39.72 434.289 40.104C434.417 41.64 434.065 42.76 433.233 43.464C432.657 43.848 431.857 44.264 430.833 44.712C429.809 45.16 429.009 45.384 428.433 45.384C424.977 45.384 422.513 44.136 421.041 41.64C420.081 39.976 419.473 38.088 419.217 35.976C418.961 33.8 418.833 30.856 418.833 27.144C418.833 23.176 418.353 19.784 417.393 16.968C416.433 14.088 414.257 12.648 410.865 12.648C409.649 12.648 408.433 13.032 407.217 13.8C406.065 14.504 405.233 15.4 404.721 16.488C403.825 18.216 403.217 20.104 402.897 22.152C402.577 24.136 402.417 26.44 402.417 29.064C402.417 30.728 402.513 32.424 402.705 34.152C402.705 34.664 402.737 35.496 402.801 36.648C402.929 37.736 402.993 38.728 402.993 39.624C402.993 41.224 402.673 42.6 402.033 43.752C401.457 44.84 400.433 45.384 398.961 45.384C395.441 45.384 393.585 43.528 393.393 39.816C393.393 37.192 393.425 35.784 393.489 35.592V31.464C393.489 29.16 393.393 26.92 393.201 24.744C393.009 22.568 392.785 20.936 392.529 19.848C391.953 17.736 391.185 16.104 390.225 14.952C389.265 13.8 387.793 13.224 385.809 13.224C384.465 13.224 383.217 13.544 382.065 14.184C380.913 14.824 379.921 15.72 379.089 16.872C377.873 18.792 377.073 21.128 376.689 23.88C376.305 27.4 376.017 30.184 375.825 32.232C375.697 34.216 375.633 36.52 375.633 39.144C375.633 41 375.313 42.504 374.673 43.656C374.097 44.808 372.977 45.384 371.313 45.384C370.097 45.384 368.817 45.064 367.473 44.424C366.193 43.72 365.553 42.792 365.553 41.64C365.553 40.424 365.681 39.208 365.937 37.992C366.513 34.344 366.801 28.136 366.801 19.368C366.801 17.96 366.481 16.584 365.841 15.24C365.265 13.832 364.529 12.744 363.633 11.976Z" fill="#228B22"/>
</svg>
